<svg xmlns="http://www.w3.org/2000/svg" viewBox="0 0 240 240" role="img" aria-labelledby="title desc">
<title id="title">House of Carol ecosystem mark</title><desc id="desc">Decorative guilloché of interlocking orbital lines around the House of Carol H.</desc>
<defs>
  <linearGradient id="foil" x1="0" y1="0" x2="1" y2="1"><stop offset="0" stop-color="#d9eff6"/><stop offset=".2" stop-color="#d8cff0"/><stop offset=".42" stop-color="#f4dfc7"/><stop offset=".62" stop-color="#cae9e5"/><stop offset=".82" stop-color="#b8d6f0"/><stop offset="1" stop-color="#b74a61"/></linearGradient>
  <radialGradient id="core" cx="38%" cy="32%"><stop offset="0" stop-color="#ffffff" stop-opacity=".28"/><stop offset=".48" stop-color="#18384f" stop-opacity=".2"/><stop offset="1" stop-color="#071b29" stop-opacity=".7"/></radialGradient>
</defs>
<g fill="none" stroke="url(#foil)" stroke-width="1.35" opacity=".9">
  <ellipse cx="120" cy="120" rx="92" ry="38" transform="rotate(0 120 120)"/>
  <ellipse cx="120" cy="120" rx="92" ry="38" transform="rotate(20 120 120)"/>
  <ellipse cx="120" cy="120" rx="92" ry="38" transform="rotate(40 120 120)"/>
  <ellipse cx="120" cy="120" rx="92" ry="38" transform="rotate(60 120 120)"/>
  <ellipse cx="120" cy="120" rx="92" ry="38" transform="rotate(80 120 120)"/>
  <ellipse cx="120" cy="120" rx="92" ry="38" transform="rotate(100 120 120)"/>
  <ellipse cx="120" cy="120" rx="92" ry="38" transform="rotate(120 120 120)"/>
  <ellipse cx="120" cy="120" rx="92" ry="38" transform="rotate(140 120 120)"/>
  <ellipse cx="120" cy="120" rx="92" ry="38" transform="rotate(160 120 120)"/>
  <circle cx="120" cy="120" r="75" opacity=".5"/><circle cx="120" cy="120" r="61" opacity=".45"/>
</g>
<g fill="url(#foil)" opacity=".9">
  <circle cx="120" cy="25" r="3"/><circle cx="187" cy="53" r="3"/><circle cx="215" cy="120" r="3"/><circle cx="187" cy="187" r="3"/><circle cx="120" cy="215" r="3"/><circle cx="53" cy="187" r="3"/><circle cx="25" cy="120" r="3"/><circle cx="53" cy="53" r="3"/>
</g>
<circle cx="120" cy="120" r="47" fill="url(#core)" stroke="url(#foil)" stroke-width="2"/>
<path d="M91 154h58M99 91h42M102 94v54M138 94v54M89 88l31-18 31 18" fill="none" stroke="#f8f7f3" stroke-width="2" opacity=".9"/>
<text x="120" y="137" text-anchor="middle" fill="#fff" font-family="Georgia,serif" font-size="47" letter-spacing="2">H</text>
<path d="M120 48l4 6-4 6-4-6zM192 120l4 6-4 6-4-6zM120 180l4 6-4 6-4-6zM48 120l4 6-4 6-4-6z" fill="url(#foil)" opacity=".75"/>
</svg>